{"title":"Listen.Up.Philip.2014.BRRip.480p.x264.AAC-VYTO [P2PDL]","uid":12168956,"size":399671733,"categoryP":"video","categoryS":"movies","magnet":"?xt=urn:btih:75dddcde911fa719f948e87963a4e2c265158ae7&amp;dn=Listen.Up.Philip.2014.BRRip.480p.x264.AAC-VYTO+%5BP2PDL%5D&amp;tr=udp%3A%2F%2Ftracker.openbittorrent.com%3A80&amp;tr=udp%3A%2F%2Fopen.demonii.com%3A1337&amp;tr=udp%3A%2F%2Ftracker.coppersurfer.tk%3A6969&amp;tr=udp%3A%2F%2Fexodus.desync.com%3A6969","seeders":0,"leechers":1,"uploader":"ValidusVyto","files":7,"time":1438102709,"description":"____    ____ ____    ____ .___________.  ______   \n     /   /      /   / |           | /  __    \n    /   /      /   /  `---|  |----`|  |  |  | \n        /     _    _/       |  |     |  |  |  | \n       /        |  |         |  |     |  `--'  | \n    __/         |__|         |__|      ______/  \n                                                  \nPresenting Small Encodes with quality for years!\n                                                                                                   \n                                                                                                   \n\nListen.Up.Philip.2014.BRRip.480p.x264.AAC-VYTO\n\n\nGenre: Comedy, Drama &lt;a href=&quot;\nhttp://www.imdb.com/title/tt3093546/&quot; rel=&quot;nofollow&quot; target=&quot;_NEW&quot;&gt;\nhttp://www.imdb.com/title/tt3093546/&lt;/a&gt;\n\n\nGeneral\nFormat                         : MPEG-4\nFile size                      : 377 MiB\nDuration                       : 1h 49mn\nOverall bit rate               : 483 Kbps\n\nVideo\nFormat                         : AVC\nBit rate                       : 448 Kbps\nWidth                          : 720 pixels\nHeight                         : 400 pixels\nDisplay aspect ratio           : 16:9\nFrame rate mode                : Constant\nFrame rate                     : 24.000 fps\nBit depth                      : 8 bits\nStream size                    : 349 MiB (93%)\nWriting library                : x264 core 146 r2538 121396c\n\nAudio\nFormat                         : AAC\nBit rate mode                  : Variable\nBit rate                       : 32.0 Kbps\nChannel(s)                     : 2 channels\nChannel positions              : Front: L R\nSampling rate                  : 48.0 KHz\nStream size                    : 24.9 MiB (7%)\nLanguage                       : English\n\nSubtitle                       : Yes (English)\nSource                         : LIMITED.720p.BluRay.X264-AMIABLE\n\n\nScreenshots:\n &lt;a href=&quot;\nhttp://ititli.com/rI&quot; rel=&quot;nofollow&quot; target=&quot;_NEW&quot;&gt;\nhttp://ititli.com/rI&lt;/a&gt; &lt;a href=&quot;\nhttp://ititli.com/rO&quot; rel=&quot;nofollow&quot; target=&quot;_NEW&quot;&gt;\nhttp://ititli.com/rO&lt;/a&gt; &lt;a href=&quot;\nhttp://ititli.com/19&quot; rel=&quot;nofollow&quot; target=&quot;_NEW&quot;&gt;\nhttp://ititli.com/19&lt;/a&gt; &lt;a href=&quot;\nhttp://ititli.com/1X&quot; rel=&quot;nofollow&quot; target=&quot;_NEW&quot;&gt;\nhttp://ititli.com/1X&lt;/a&gt; &lt;a href=&quot;\nhttp://ititli.com/1q&quot; rel=&quot;nofollow&quot; target=&quot;_NEW&quot;&gt;\nhttp://ititli.com/1q&lt;/a&gt; &lt;a href=&quot;\nhttp://ititli.com/1r&quot; rel=&quot;nofollow&quot; target=&quot;_NEW&quot;&gt;\nhttp://ititli.com/1r&lt;/a&gt; &lt;a href=&quot;\nhttp://ititli.com/11&quot; rel=&quot;nofollow&quot; target=&quot;_NEW&quot;&gt;\nhttp://ititli.com/11&lt;/a&gt; &lt;a href=&quot;\nhttp://ititli.com/1T&quot; rel=&quot;nofollow&quot; target=&quot;_NEW&quot;&gt;\nhttp://ititli.com/1T&lt;/a&gt; &lt;a href=&quot;\nhttp://ititli.com/1W&quot; rel=&quot;nofollow&quot; target=&quot;_NEW&quot;&gt;\nhttp://ititli.com/1W&lt;/a&gt; &lt;a href=&quot;\nhttp://ititli.com/1g&quot; rel=&quot;nofollow&quot; target=&quot;_NEW&quot;&gt;\nhttp://ititli.com/1g&lt;/a&gt; &lt;a href=&quot;\nhttp://ititli.com/1n&quot; rel=&quot;nofollow&quot; target=&quot;_NEW&quot;&gt;\nhttp://ititli.com/1n&lt;/a&gt; &lt;a href=&quot;\nhttp://ititli.com/1w&quot; rel=&quot;nofollow&quot; target=&quot;_NEW&quot;&gt;\nhttp://ititli.com/1w&lt;/a&gt;\n\n----------------------------------------------------------------------------------------------------\n\n\nEncoder Notes: Looking For Early Access To Anything You Can Provide DVDScr, R5, DVDR, BluRay, Direct\nAudio, Music Releases and Seedboxes. If You Got anything to offer please contact us.\n\nSupport us by donating BC - 1FgwdzPsd1y25Gea8wP1qni35uGCtmkRCD","torrent":{"xt":"urn:btih:75dddcde911fa719f948e87963a4e2c265158ae7","amp;dn":"Listen.Up.Philip.2014.BRRip.480p.x264.AAC-VYTO+%5BP2PDL%5D","amp;tr":["udp%3A%2F%2Ftracker.openbittorrent.com%3A80","udp%3A%2F%2Fopen.demonii.com%3A1337","udp%3A%2F%2Ftracker.coppersurfer.tk%3A6969","udp%3A%2F%2Fexodus.desync.com%3A6969"],"infoHash":"75dddcde911fa719f948e87963a4e2c265158ae7","infoHashBuffer":{"type":"Buffer","data":[117,221,220,222,145,31,167,25,249,72,232,121,99,164,226,194,101,21,138,231]},"announce":[],"urlList":[]}}